<?xml version="1.0" standalone="no"?>
<!DOCTYPE svg PUBLIC "-//W3C//DTD SVG 20010904//EN"
 "http://www.w3.org/TR/2001/REC-SVG-20010904/DTD/svg10.dtd">
<svg version="1.0" xmlns="http://www.w3.org/2000/svg"
 width="1591.000000pt" height="1588.000000pt" viewBox="0 0 1591.000000 1588.000000"
 preserveAspectRatio="xMidYMid meet">

<g transform="translate(0.000000,1588.000000) scale(0.100000,-0.100000)"
fill="#000000" stroke="none">
<path d="M15118 15850 c-20 -11 -235 -220 -478 -464 -410 -412 -448 -448 -519
-485 -116 -60 -195 -89 -725 -267 -540 -182 -745 -259 -975 -370 -638 -307
-962 -651 -1214 -1289 -113 -287 -221 -693 -263 -990 -3 -27 -10 -57 -14 -65
-5 -9 -288 -196 -629 -415 -341 -220 -621 -403 -621 -406 0 -10 1417 -1419
1428 -1419 5 0 191 279 413 619 l404 620 70 11 c824 133 1472 414 1833 795
210 221 390 520 558 923 83 198 137 352 313 881 93 280 160 463 196 540 l56
116 444 438 c516 510 500 488 500 653 0 92 -2 105 -30 157 -40 76 -317 366
-389 407 -50 29 -55 30 -186 29 -114 0 -141 -3 -172 -19z"/>
<path d="M6135 11867 c-94 -31 -152 -78 -196 -159 -31 -58 -34 -70 -33 -148 0
-139 -6 -131 444 -577 l395 -391 -305 -309 c-263 -265 -310 -318 -343 -379
-72 -138 -95 -303 -62 -459 18 -85 80 -213 136 -278 l42 -48 311 308 c379 377
408 399 946 728 342 209 529 326 535 335 2 4 -62 72 -143 152 -131 130 -156
149 -232 186 -81 39 -205 72 -268 72 -25 0 -93 65 -489 463 -353 356 -471 469
-509 488 -58 28 -167 36 -229 16z"/>
<path d="M9065 10485 c-87 -91 -188 -188 -224 -214 -94 -70 -287 -191 -771
-486 -460 -280 -713 -441 -794 -508 -106 -88 -3782 -3782 -3837 -3857 -123
-166 -258 -377 -637 -995 -346 -564 -320 -530 -634 -841 l-273 -271 -165 -103
c-91 -57 -167 -105 -170 -107 -5 -4 1542 -1553 1552 -1553 3 0 52 73 107 162
l100 163 298 296 c352 351 302 314 1048 766 403 244 545 332 700 436 116 77
156 116 1107 1065 l986 985 64 -5 c132 -11 45 69 1463 -1347 715 -714 1316
-1307 1335 -1319 107 -62 258 -68 371 -14 56 27 104 71 376 344 263 264 316
322 338 370 52 115 52 231 0 346 -23 50 -122 154 -814 847 l-788 790 217 215
c124 123 240 247 270 290 148 210 218 480 191 738 -19 186 -71 363 -152 524
-77 152 -166 262 -412 506 l-204 204 242 391 c341 554 334 545 535 741 l173
168 -720 720 -720 720 -158 -167z m461 -3287 c123 -126 169 -181 203 -241 90
-160 137 -361 113 -488 -22 -121 -44 -149 -280 -373 l-217 -206 -283 283
c-302 301 -325 329 -344 439 l-11 60 281 282 c159 160 298 308 321 344 23 34
45 62 50 62 4 0 79 -73 167 -162z"/>
<path d="M4035 7683 c-114 -9 -217 -45 -315 -109 -43 -28 -206 -185 -491 -471
-401 -403 -428 -433 -466 -508 -46 -90 -60 -133 -72 -233 -24 -188 39 -378
173 -527 l51 -56 54 73 c31 41 391 410 828 849 l774 776 -63 51 c-139 114
-303 168 -473 155z"/>
<path d="M6330 3404 c-371 -372 -445 -438 -613 -554 -43 -29 -76 -56 -75 -60
5 -12 1123 -1164 1177 -1213 72 -64 145 -91 246 -90 89 1 143 17 208 62 23 16
173 161 333 323 266 268 293 298 315 353 18 46 23 80 23 145 1 119 -32 188
-147 307 -46 48 -303 318 -571 598 -269 281 -493 511 -499 513 -7 1 -185 -171
-397 -384z"/>
<path d="M730 2839 c-211 -22 -452 -188 -598 -412 -109 -167 -146 -353 -96
-477 10 -23 324 -345 952 -973 1042 -1043 968 -977 1108 -977 276 0 602 254
726 565 30 73 32 90 33 195 0 100 -3 120 -22 155 -29 54 -1868 1890 -1908
1905 -48 19 -125 26 -195 19z"/>
</g>
</svg>
